<?xml version="1.0" standalone="no"?>
<!DOCTYPE svg PUBLIC "-//W3C//DTD SVG 20010904//EN"
 "http://www.w3.org/TR/2001/REC-SVG-20010904/DTD/svg10.dtd">
<svg version="1.0" xmlns="http://www.w3.org/2000/svg"
 width="3654.000000pt" height="2844.000000pt" viewBox="0 0 3654.000000 2844.000000"
 preserveAspectRatio="xMidYMid meet">

<g transform="translate(0.000000,2844.000000) scale(0.100000,-0.100000)"
fill="#000000" stroke="none">
<path d="M21900 28286 c-136 -36 -142 -39 -245 -86 -167 -76 -275 -135 -345
-188 -112 -86 -455 -434 -511 -519 -78 -119 -154 -280 -202 -423 -84 -255 -82
-237 -82 -595 0 -358 -4 -329 86 -600 152 -454 504 -858 934 -1073 107 -53
361 -137 515 -170 112 -24 146 -26 325 -26 154 0 220 4 285 18 146 30 363 99
494 155 57 25 226 130 345 214 115 82 304 277 395 407 112 161 224 394 269
555 56 205 60 242 65 487 3 228 3 243 -23 355 -28 129 -57 230 -85 308 -10 28
-24 68 -31 90 -33 109 -169 330 -270 440 -116 126 -309 309 -379 360 -143 104
-309 191 -470 245 -236 79 -187 73 -585 76 l-360 3 -125 -33z"/>
<path d="M26320 25196 c-104 -36 -122 -47 -380 -214 -47 -31 -103 -68 -125
-82 -22 -15 -87 -56 -145 -90 -58 -34 -118 -72 -135 -84 -16 -12 -52 -35 -80
-51 -27 -15 -69 -42 -92 -59 -23 -17 -75 -51 -114 -76 -40 -25 -129 -82 -197
-127 -69 -46 -129 -83 -133 -83 -4 0 -99 -59 -211 -132 -228 -147 -441 -280
-507 -315 -57 -30 -147 -31 -265 -3 -47 11 -141 24 -208 29 -68 5 -152 16
-188 24 -36 9 -105 18 -155 22 -49 4 -133 15 -185 25 -52 10 -142 21 -200 25
-58 4 -145 16 -195 26 -49 11 -149 24 -222 29 -72 5 -162 16 -200 25 -37 9
-120 20 -183 25 -63 6 -135 15 -160 20 -25 6 -115 17 -200 25 -85 8 -191 21
-235 29 -167 32 -321 15 -545 -60 -186 -62 -251 -105 -439 -289 -173 -169
-224 -230 -274 -330 -60 -120 -129 -356 -141 -483 -3 -35 -26 -152 -50 -260
-81 -360 -88 -396 -101 -492 -8 -53 -23 -132 -33 -175 -35 -138 -60 -257 -77
-353 -9 -51 -19 -103 -24 -115 -5 -12 -12 -47 -16 -77 -4 -30 -14 -82 -22
-115 -8 -33 -21 -96 -27 -140 -7 -44 -22 -123 -34 -175 -11 -52 -30 -144 -42
-205 -12 -60 -33 -164 -47 -230 -14 -66 -29 -142 -33 -170 -4 -27 -18 -97 -30
-153 -19 -91 -22 -125 -18 -270 4 -145 8 -177 30 -242 49 -143 105 -280 139
-337 41 -68 287 -325 376 -392 131 -97 357 -188 513 -206 30 -3 84 -14 120
-24 36 -11 90 -22 120 -25 30 -3 80 -13 110 -21 30 -9 91 -22 135 -30 79 -15
186 -38 315 -70 36 -8 115 -22 175 -31 61 -8 133 -21 160 -30 56 -17 201 -50
285 -65 116 -21 166 -32 208 -45 23 -8 59 -14 80 -14 20 0 73 -9 117 -19 44
-11 114 -24 155 -30 41 -7 108 -21 149 -31 41 -11 85 -20 97 -20 12 0 65 -11
118 -25 53 -14 111 -25 129 -25 17 0 64 -9 102 -20 39 -11 104 -24 145 -30 93
-12 246 -48 283 -66 23 -11 37 -11 72 -2 40 11 48 10 72 -8 16 -12 34 -32 40
-45 10 -19 13 -316 13 -1353 0 -1306 0 -1329 19 -1360 11 -17 37 -65 57 -106
29 -59 58 -95 132 -169 84 -84 109 -102 211 -154 132 -66 229 -95 351 -103 85
-6 85 -6 189 40 57 25 126 63 152 83 49 37 162 179 213 265 60 104 58 10 51
1998 -7 2012 -2 1870 -73 2019 -83 170 -348 403 -552 484 -104 41 -488 164
-570 183 -41 9 -84 21 -95 27 -11 6 -49 18 -85 28 -75 21 -144 43 -215 69 -86
31 -338 109 -390 120 -27 6 -156 46 -285 90 -129 43 -250 81 -267 85 -43 9
-93 56 -93 87 0 14 9 60 21 104 11 43 29 113 39 154 10 41 26 107 35 145 9 39
28 104 40 145 34 108 55 184 77 275 54 220 68 277 91 365 14 52 48 184 76 293
55 216 61 231 94 249 30 16 138 13 222 -7 39 -9 138 -22 220 -30 83 -7 182
-22 220 -31 54 -14 113 -18 260 -18 174 0 196 2 260 23 112 38 305 145 451
250 23 16 79 51 125 78 79 46 335 210 437 280 26 18 76 49 112 69 61 35 165
102 435 279 61 40 137 87 170 106 60 33 138 83 250 159 102 70 188 125 281
180 159 96 434 279 480 322 78 72 148 181 193 303 20 54 23 78 23 235 0 170
-1 177 -31 259 -55 152 -146 260 -304 359 -127 80 -214 102 -402 102 -131 0
-158 -3 -215 -24z"/>
<path d="M19910 23924 c-47 -19 -139 -54 -205 -78 -66 -24 -174 -65 -240 -90
-66 -26 -145 -57 -175 -68 -30 -12 -77 -31 -105 -43 -27 -13 -99 -39 -160 -60
-120 -41 -186 -66 -249 -94 -23 -11 -61 -26 -86 -34 -25 -9 -79 -30 -120 -47
-41 -17 -113 -45 -160 -62 -97 -35 -282 -125 -355 -174 -56 -36 -198 -177
-243 -239 -16 -22 -62 -105 -104 -185 -41 -80 -104 -194 -140 -255 -36 -60
-104 -184 -153 -275 -48 -91 -102 -187 -120 -215 -18 -27 -74 -128 -124 -224
-51 -96 -105 -193 -120 -215 -15 -23 -72 -124 -126 -226 -54 -102 -110 -203
-125 -225 -15 -22 -63 -107 -105 -190 -125 -239 -127 -242 -256 -286 -157 -54
-327 -216 -424 -404 -52 -101 -91 -145 -129 -145 -31 0 -111 29 -241 87 -60
27 -126 56 -145 63 -19 8 -98 45 -175 83 -400 198 -436 209 -548 171 -109 -37
-253 -220 -307 -389 -7 -22 -49 -114 -93 -205 -199 -413 -245 -509 -262 -555
-10 -28 -62 -140 -116 -250 -142 -292 -197 -410 -234 -501 -18 -44 -37 -89
-43 -100 -6 -10 -31 -62 -55 -114 -25 -52 -88 -183 -140 -290 -52 -107 -106
-224 -120 -260 -15 -36 -42 -101 -62 -145 -42 -97 -44 -142 -9 -230 20 -50 40
-77 86 -120 32 -30 63 -55 68 -55 8 0 314 -144 370 -174 14 -7 43 -19 65 -26
40 -12 149 -63 360 -168 136 -67 374 -177 406 -187 24 -7 145 -65 454 -215
169 -82 298 -140 312 -140 4 0 66 -29 138 -64 378 -187 613 -296 634 -296 6 0
59 -25 119 -55 59 -29 166 -82 237 -116 72 -34 180 -85 241 -114 60 -29 121
-56 135 -60 13 -3 87 -37 164 -73 137 -65 142 -67 233 -70 84 -4 98 -1 146 22
79 39 122 98 219 304 48 101 87 189 87 196 0 6 11 34 24 62 146 297 276 566
276 570 0 2 11 27 24 56 13 29 27 63 31 76 4 13 49 112 102 220 52 108 125
260 163 337 37 77 73 158 80 180 7 22 47 112 90 200 300 615 303 620 304 705
1 151 -121 275 -373 381 -211 89 -643 301 -669 329 -40 43 -32 88 48 257 55
116 70 174 70 271 0 69 -6 102 -31 176 -61 174 -59 189 43 367 39 68 98 174
131 234 112 206 171 310 197 350 15 22 68 118 119 213 50 96 107 198 126 227
19 30 69 120 111 202 88 168 161 282 196 305 14 9 87 39 164 67 76 27 177 65
224 84 47 18 125 49 173 68 106 41 163 85 175 137 24 97 82 381 103 502 6 30
21 105 34 165 53 245 68 323 76 375 27 185 120 500 194 656 60 126 62 144 13
144 -18 0 -71 -16 -118 -36z m-3230 -3796 c48 -14 686 -331 734 -365 60 -43
63 -53 41 -120 -16 -48 -34 -72 -100 -137 -44 -43 -95 -84 -113 -92 -18 -8
-81 -17 -141 -21 -129 -7 -155 0 -328 84 -133 65 -199 120 -247 206 -44 79
-71 212 -61 301 9 75 17 93 63 133 39 34 64 36 152 11z"/>
<path d="M19765 18700 c-9 -15 -5 -709 5 -880 4 -80 13 -183 20 -230 7 -57 10
-271 8 -650 l-3 -565 -39 -90 c-21 -49 -60 -135 -86 -190 -26 -55 -60 -134
-74 -175 -15 -41 -54 -131 -88 -200 -33 -69 -78 -170 -99 -225 -22 -55 -60
-140 -84 -190 -52 -106 -105 -229 -105 -244 0 -5 -29 -70 -64 -143 -82 -171
-122 -263 -135 -313 -6 -22 -17 -49 -24 -60 -17 -25 -123 -261 -132 -295 -3
-14 -19 -52 -35 -85 -16 -33 -53 -112 -83 -176 -31 -63 -64 -143 -75 -176 -11
-34 -29 -78 -40 -100 -87 -166 -102 -225 -102 -391 0 -121 3 -144 30 -232 38
-123 85 -196 199 -306 113 -109 167 -148 228 -164 27 -6 65 -18 86 -26 26 -10
85 -14 198 -14 146 0 168 2 228 24 133 48 263 140 338 238 24 30 105 178 181
329 77 151 152 295 168 320 28 44 70 126 517 1009 263 519 236 467 316 630
103 209 255 502 288 555 35 57 171 321 211 410 l27 60 0 765 c1 421 -2 865 -5
987 -5 204 -7 224 -26 249 -24 33 -86 54 -229 78 -52 9 -106 21 -121 26 -14 6
-70 17 -124 25 -54 8 -111 20 -126 26 -16 6 -74 17 -129 25 -55 9 -122 21
-150 29 -27 7 -75 16 -105 19 -78 9 -227 59 -355 119 -107 51 -286 152 -334
189 -26 20 -66 24 -76 8z"/>
<path d="M25555 18088 c-3 -7 -6 -1329 -8 -2938 l-2 -2925 -4047 -3 -4048 -2
-1 -2968 c0 -2271 -3 -2975 -12 -3002 -7 -21 -25 -42 -46 -54 -30 -17 -39 -18
-90 -8 -43 9 -1039 12 -4058 12 -2201 0 -4008 -3 -4017 -6 -15 -6 -16 -281
-16 -3015 l0 -3009 12198 2 12197 3 0 8960 0 8960 -4023 3 c-3213 2 -4024 0
-4027 -10z"/>
</g>
</svg>
