<?xml version="1.0" standalone="no"?>
<!DOCTYPE svg PUBLIC "-//W3C//DTD SVG 20010904//EN"
 "http://www.w3.org/TR/2001/REC-SVG-20010904/DTD/svg10.dtd">
<svg version="1.0" xmlns="http://www.w3.org/2000/svg"
 width="3654.000000pt" height="2844.000000pt" viewBox="0 0 3654.000000 2844.000000"
 preserveAspectRatio="xMidYMid meet">

<g transform="translate(0.000000,2844.000000) scale(0.100000,-0.100000)"
fill="#000000" stroke="none">
<path d="M29259 28365 c-1 -3 -2 -10 -3 -17 0 -6 -45 -31 -99 -54 -213 -92
-348 -193 -494 -368 -85 -102 -140 -204 -194 -356 l-34 -95 0 -255 c0 -239 1
-260 24 -335 29 -100 104 -250 167 -335 75 -102 241 -259 330 -312 106 -62
247 -123 347 -150 69 -18 110 -21 262 -21 153 0 193 3 267 22 116 29 244 80
326 130 77 45 226 182 319 290 64 75 164 255 198 356 127 379 30 821 -244
1109 -149 157 -270 248 -398 297 -100 39 -149 65 -156 84 -6 13 -46 15 -312
15 -168 0 -306 -2 -306 -5z"/>
<path d="M29860 25949 c-14 -6 -72 -57 -130 -113 -117 -115 -140 -131 -178
-121 -14 3 -73 53 -131 109 -116 113 -152 132 -224 121 -99 -17 -287 -118
-412 -222 -38 -33 -88 -70 -110 -83 -167 -100 -534 -437 -667 -611 -89 -117
-231 -355 -319 -537 -107 -219 -148 -324 -227 -592 -68 -228 -92 -318 -133
-510 -21 -102 -48 -218 -58 -259 -11 -40 -22 -103 -26 -140 -3 -36 -12 -100
-20 -141 -53 -289 -57 -317 -54 -415 4 -88 8 -108 36 -167 57 -121 140 -201
249 -239 49 -17 78 -20 169 -17 99 3 115 6 163 33 69 38 197 172 228 239 13
29 29 88 35 132 6 43 15 98 20 121 5 23 15 84 23 135 8 51 26 147 40 213 13
66 37 183 52 259 15 77 38 178 51 225 13 47 35 127 48 176 40 150 66 193 92
153 4 -7 11 -341 14 -743 6 -708 6 -732 27 -800 l21 -70 1 -2230 c0 -2364 -1
-2306 45 -2397 8 -17 15 -33 15 -35 0 -1 -313 -3 -695 -3 l-695 0 -2 -1712 -3
-1713 -2310 -2 c-1270 -2 -2316 -3 -2322 -3 -10 0 -13 -352 -15 -1710 l-3
-1710 -2325 -3 -2325 -2 -5 -1673 -5 -1672 -2272 0 c-1249 0 -2278 -3 -2287
-6 -15 -6 -16 -161 -16 -1710 l0 -1704 -2315 0 -2315 0 0 -1710 0 -1710 7463
-2 c4104 -2 9308 -2 11565 0 l4102 2 0 8520 0 8520 -558 0 c-307 0 -562 3
-565 7 -4 3 -1 16 7 28 8 13 22 50 30 83 14 52 16 168 16 862 l0 802 -25 30
c-14 16 -25 38 -25 48 0 40 -61 45 -430 39 -284 -4 -348 -3 -361 8 -10 8 -20
35 -24 61 -4 26 -7 632 -6 1347 l1 1299 25 26 25 25 414 5 414 5 26 24 c14 13
35 49 47 80 21 56 21 62 18 861 -1 443 -1 811 -1 818 3 18 47 15 64 -5 9 -10
21 -29 28 -43 16 -30 92 -299 121 -424 11 -49 23 -94 26 -99 3 -5 9 -42 14
-82 8 -75 66 -332 98 -440 10 -33 22 -89 26 -125 4 -36 16 -91 26 -122 10 -32
19 -84 19 -116 0 -74 -22 -107 -77 -116 -48 -7 -97 -37 -120 -73 -15 -23 -17
-44 -15 -143 4 -119 -8 -176 -39 -196 -8 -5 -219 -11 -469 -14 l-455 -5 -6
-320 c-4 -176 -7 -701 -8 -1166 -1 -798 0 -847 17 -854 9 -4 724 -10 1587 -13
1471 -4 1572 -4 1588 12 16 16 17 97 17 1175 0 886 -3 1160 -12 1169 -9 9
-124 12 -458 12 -375 0 -449 2 -466 15 -19 13 -22 27 -26 139 -4 112 -7 128
-32 171 -17 29 -46 57 -74 75 -97 60 -92 52 -92 143 0 50 -10 129 -26 202 -14
66 -31 165 -39 220 -26 196 -64 394 -119 620 -19 77 -42 174 -51 215 -32 141
-152 504 -196 592 -16 32 -29 63 -29 69 0 6 -29 72 -64 145 -92 191 -237 428
-317 521 -100 114 -402 415 -499 498 -141 120 -512 343 -670 404 -94 36 -128
43 -160 30z m-261 -445 c6 -14 16 -72 22 -127 5 -56 14 -118 19 -137 5 -19 16
-93 25 -164 9 -71 27 -184 40 -250 13 -67 26 -157 30 -201 3 -44 10 -96 15
-115 5 -19 16 -96 25 -170 9 -74 27 -191 41 -260 29 -140 40 -259 30 -314 -4
-20 -32 -69 -64 -113 -32 -43 -83 -113 -113 -155 -84 -120 -109 -121 -191 -10
-23 31 -67 90 -97 130 -103 135 -107 156 -67 375 13 73 29 177 36 232 6 55 17
136 25 180 8 44 19 120 25 169 6 50 13 93 15 97 3 3 9 57 15 118 6 62 23 176
39 254 34 168 58 303 67 372 13 108 38 143 63 89z m1636 -3324 c14 -5 52 -36
84 -69 54 -55 63 -60 117 -67 33 -4 110 -8 173 -8 103 -1 115 1 125 19 57 101
257 164 321 101 30 -30 45 -84 45 -164 0 -76 -7 -90 -60 -127 l-41 -29 -167 3
c-92 1 -187 4 -212 5 -25 1 -141 3 -259 4 l-213 2 -39 39 c-38 38 -39 40 -39
110 0 91 16 157 43 176 25 17 84 20 122 5z m-1631 -812 c14 -20 16 -205 17
-1763 0 -1605 6 -2104 24 -2162 7 -23 7 -23 -109 -23 -64 0 -116 3 -116 7 0 4
10 17 23 31 l22 24 3 886 c12 3031 12 2996 29 3010 28 21 90 15 107 -10z"/>
</g>
</svg>
