<?xml version="1.0" standalone="no"?>
<!DOCTYPE svg PUBLIC "-//W3C//DTD SVG 20010904//EN"
 "http://www.w3.org/TR/2001/REC-SVG-20010904/DTD/svg10.dtd">
<svg version="1.0" xmlns="http://www.w3.org/2000/svg"
 width="3654.000000pt" height="2844.000000pt" viewBox="0 0 3654.000000 2844.000000"
 preserveAspectRatio="xMidYMid meet">

<g transform="translate(0.000000,2844.000000) scale(0.100000,-0.100000)"
fill="#000000" stroke="none">
<path d="M14800 27880 c-210 -55 -511 -195 -660 -308 -106 -79 -517 -496 -577
-584 -67 -99 -199 -365 -224 -452 -11 -39 -27 -87 -34 -106 -8 -19 -28 -92
-45 -163 l-31 -127 4 -338 4 -337 30 -110 c17 -60 35 -121 41 -135 6 -14 20
-56 31 -95 45 -157 229 -486 359 -642 124 -149 307 -317 457 -418 100 -68 354
-205 381 -205 8 0 22 -4 32 -9 44 -24 264 -88 397 -117 317 -67 612 -54 935
43 234 69 357 121 499 210 235 148 284 186 447 348 126 126 178 187 245 285
158 232 273 495 324 740 41 193 44 227 45 463 0 227 -1 243 -30 375 -31 144
-47 201 -87 317 -14 39 -29 86 -35 105 -28 101 -122 273 -230 425 -62 87 -409
431 -504 501 -183 133 -355 221 -571 293 -252 84 -230 81 -667 80 l-391 -1
-145 -38z"/>
<path d="M19915 24393 c-117 -25 -303 -122 -510 -266 -116 -81 -349 -227 -361
-227 -3 0 -38 -22 -77 -48 -40 -27 -119 -79 -177 -116 -58 -38 -177 -115 -265
-173 -88 -58 -203 -130 -255 -161 -52 -30 -158 -96 -235 -147 -162 -106 -301
-196 -326 -210 -9 -5 -48 -28 -85 -50 -38 -21 -97 -58 -131 -82 -35 -23 -80
-47 -100 -52 -59 -17 -151 -13 -254 10 -52 11 -164 27 -249 35 -85 7 -182 21
-215 29 -33 8 -114 19 -180 24 -66 5 -165 18 -220 30 -55 11 -149 23 -210 26
-60 4 -164 18 -230 31 -66 13 -181 28 -255 33 -74 5 -180 18 -235 29 -55 11
-141 23 -191 26 -50 3 -137 14 -195 25 -57 11 -172 25 -256 30 -83 6 -163 15
-179 21 -43 17 -220 27 -329 19 -105 -8 -186 -26 -350 -79 -196 -64 -294 -131
-518 -354 -227 -227 -273 -296 -350 -523 -49 -144 -80 -275 -97 -408 -6 -49
-17 -115 -25 -145 -25 -97 -73 -312 -91 -410 -9 -52 -22 -111 -29 -130 -7 -19
-15 -69 -19 -110 -6 -67 -21 -139 -86 -420 -11 -47 -27 -128 -36 -180 -8 -52
-22 -115 -29 -140 -8 -25 -19 -76 -24 -115 -6 -38 -17 -99 -26 -135 -8 -36
-22 -105 -29 -155 -8 -49 -26 -137 -39 -195 -14 -58 -29 -132 -35 -165 -19
-111 -71 -370 -81 -404 -6 -19 -15 -69 -21 -112 -6 -43 -20 -114 -32 -156 -18
-68 -21 -105 -21 -293 l0 -215 35 -100 c105 -298 129 -349 207 -447 77 -96
277 -297 369 -370 137 -108 405 -219 583 -239 42 -5 106 -18 142 -29 36 -11
101 -25 144 -30 43 -6 103 -17 133 -26 30 -9 82 -21 115 -26 33 -5 98 -19 145
-30 47 -11 126 -28 175 -38 50 -10 117 -25 150 -34 32 -9 78 -16 101 -16 46 0
161 -22 233 -45 25 -8 73 -19 106 -26 33 -6 81 -17 108 -25 26 -8 80 -19 120
-24 39 -5 97 -16 127 -25 30 -9 105 -22 165 -31 61 -8 130 -21 155 -29 25 -7
92 -21 150 -30 58 -9 125 -22 150 -30 25 -8 79 -19 120 -24 41 -6 100 -18 130
-27 30 -9 82 -20 115 -26 33 -5 110 -20 170 -33 61 -13 133 -27 160 -31 71 -8
264 -53 302 -69 24 -11 34 -23 42 -52 5 -21 12 -265 15 -543 5 -408 9 -517 22
-565 11 -44 18 -150 25 -395 16 -609 29 -904 39 -945 6 -22 15 -157 19 -300 8
-241 11 -267 36 -355 57 -193 146 -325 320 -475 37 -32 177 -104 265 -136 60
-22 80 -24 240 -24 165 1 179 2 240 27 151 61 229 108 327 198 51 47 163 179
163 192 0 4 11 32 25 61 26 53 59 154 77 239 14 65 -8 2114 -23 2183 -8 34
-14 336 -18 955 l-7 905 -32 107 c-59 195 -102 267 -241 411 -121 125 -313
258 -451 314 -41 17 -129 47 -195 68 -66 21 -142 46 -170 56 -96 35 -181 61
-275 84 -52 12 -108 28 -125 35 -16 7 -59 21 -95 31 -78 22 -212 65 -260 84
-19 8 -89 30 -155 50 -66 20 -145 45 -175 55 -30 10 -89 26 -130 35 -41 9 -87
23 -103 30 -15 8 -53 21 -85 30 -31 9 -79 24 -107 34 -27 10 -97 33 -155 51
-173 54 -193 62 -217 88 -31 34 -30 81 6 217 59 220 72 271 85 335 8 36 23 92
34 125 18 53 41 136 112 405 11 41 23 91 26 110 6 34 25 105 79 300 14 52 32
122 39 155 20 91 75 296 87 327 6 15 22 34 35 43 34 22 161 19 270 -6 49 -11
148 -24 219 -29 72 -4 187 -20 257 -34 110 -23 152 -26 315 -26 158 0 198 3
262 21 89 24 301 128 394 193 35 25 68 46 72 46 5 0 31 17 59 38 28 21 101 68
162 104 61 36 140 86 176 110 36 23 103 67 149 97 46 29 113 73 149 97 36 24
98 63 138 86 104 61 280 174 542 349 47 31 121 77 165 102 78 44 160 96 280
177 134 90 227 150 311 200 254 152 504 323 568 388 93 95 159 206 206 343 20
62 22 80 17 270 -4 200 -5 206 -35 282 -44 113 -87 181 -165 259 -58 58 -176
144 -256 187 -12 7 -67 25 -124 41 -94 28 -114 30 -252 29 -82 -1 -159 -3
-170 -6z"/>
<path d="M12580 22936 c-157 -62 -215 -84 -290 -111 -41 -15 -145 -54 -230
-87 -85 -33 -180 -69 -210 -80 -30 -12 -77 -31 -105 -44 -55 -25 -162 -64
-271 -99 -39 -12 -113 -41 -165 -63 -123 -52 -306 -124 -450 -177 -132 -48
-325 -142 -414 -200 -70 -46 -213 -186 -272 -265 -23 -30 -79 -127 -124 -215
-45 -88 -112 -209 -149 -270 -36 -60 -101 -177 -143 -258 -43 -81 -113 -207
-156 -280 -43 -73 -111 -195 -151 -272 -40 -77 -106 -194 -145 -260 -40 -66
-105 -183 -145 -260 -40 -77 -97 -180 -128 -230 -30 -49 -76 -130 -102 -180
-179 -340 -185 -349 -282 -381 -141 -46 -225 -100 -355 -231 -73 -74 -109
-125 -197 -286 -41 -74 -58 -96 -88 -110 -36 -17 -41 -18 -93 -2 -31 9 -100
36 -153 62 -53 25 -124 56 -158 68 -63 25 -174 76 -454 213 -228 111 -258 122
-338 122 -87 0 -153 -30 -232 -105 -76 -73 -138 -167 -189 -286 -23 -53 -41
-99 -41 -103 0 -6 -58 -127 -230 -481 -96 -196 -161 -341 -175 -385 -4 -14
-58 -128 -120 -255 -187 -381 -248 -512 -275 -585 -15 -41 -58 -133 -187 -400
-173 -357 -217 -452 -227 -493 -4 -16 -17 -45 -29 -65 -37 -61 -70 -176 -62
-219 26 -150 98 -238 255 -315 264 -129 430 -205 466 -214 16 -4 58 -22 94
-40 111 -55 512 -250 580 -281 36 -17 91 -42 122 -57 31 -14 62 -26 68 -26 11
0 81 -33 485 -230 214 -105 360 -170 376 -170 6 0 79 -33 162 -74 570 -277
648 -314 707 -331 14 -4 102 -44 195 -90 403 -198 575 -278 650 -305 28 -10
113 -48 190 -86 l140 -69 116 -3 c139 -4 172 8 255 94 43 45 68 89 153 270 55
118 101 221 101 228 0 7 13 39 29 72 219 446 349 723 371 788 7 21 69 154 137
295 204 418 242 498 264 564 11 34 34 86 50 117 16 30 29 61 29 68 0 6 5 12
10 12 6 0 10 4 10 9 0 10 71 162 205 436 130 266 138 290 139 370 0 58 -5 81
-28 130 -57 115 -185 218 -366 294 -234 98 -720 333 -772 373 -64 50 -62 92
14 258 130 283 137 390 43 626 -50 126 -40 160 140 469 51 88 131 232 179 320
47 88 107 194 133 235 25 41 78 136 116 210 80 154 141 262 172 305 12 17 29
44 37 60 59 119 166 317 203 374 68 105 92 123 223 170 64 24 162 61 217 83
55 23 134 53 175 68 41 15 91 33 110 42 19 8 53 21 75 29 54 19 121 87 133
136 29 121 55 249 68 328 7 50 22 126 33 170 11 44 25 114 32 155 6 41 18 92
25 113 7 21 16 61 19 90 7 59 38 210 126 622 22 106 100 327 156 444 62 131
66 141 52 157 -17 21 -45 17 -139 -20z m-3670 -4344 c70 -27 305 -139 410
-196 36 -19 125 -65 199 -102 189 -93 245 -131 249 -170 6 -62 -32 -129 -128
-225 -50 -50 -106 -97 -125 -104 -18 -8 -89 -18 -157 -21 -153 -8 -189 1 -385
97 -155 76 -207 119 -268 219 -42 70 -64 151 -71 270 -8 125 4 172 62 227 42
41 45 42 96 36 29 -3 82 -17 118 -31z"/>
<path d="M20078 14101 l-3 -4599 -24 -26 c-27 -28 -48 -34 -146 -41 -38 -2
-2841 -5 -6227 -5 l-6158 0 0 -4520 0 -4520 12416 0 12416 0 -6 9058 c-3 4981
-6 9101 -6 9155 l0 97 -6130 0 -6130 0 -2 -4599z"/>
<path d="M12389 16983 c-26 -31 -9 -1051 20 -1238 6 -33 11 -357 12 -720 l1
-660 -35 -85 c-19 -47 -38 -96 -42 -110 -4 -14 -30 -70 -57 -125 -46 -93 -118
-265 -118 -282 0 -3 -15 -38 -34 -77 -81 -167 -135 -287 -166 -366 -18 -47
-57 -134 -86 -195 -68 -142 -114 -250 -114 -268 0 -8 -13 -41 -29 -73 -115
-234 -185 -390 -197 -439 -3 -16 -35 -88 -69 -160 -74 -153 -89 -187 -104
-240 -7 -22 -26 -69 -43 -105 -17 -36 -35 -73 -40 -82 -4 -10 -12 -26 -17 -35
-34 -65 -102 -219 -121 -273 -12 -36 -34 -92 -50 -125 -15 -33 -42 -90 -59
-126 -53 -114 -63 -171 -59 -352 3 -150 5 -169 35 -263 42 -131 72 -175 217
-320 127 -127 178 -166 248 -188 200 -62 174 -58 365 -54 166 5 183 7 248 33
39 15 77 34 85 41 8 7 27 15 41 19 41 10 192 138 245 206 27 35 110 187 194
353 147 292 168 331 214 404 13 22 38 66 53 98 36 72 365 721 381 749 6 11 33
65 60 120 221 446 707 1405 744 1465 68 113 252 477 276 548 22 62 22 65 21
930 -1 477 -4 976 -7 1109 -8 290 -6 285 -123 320 -41 13 -108 27 -150 33 -42
6 -109 20 -148 30 -40 11 -105 25 -146 31 -41 5 -98 17 -127 25 -29 8 -96 21
-148 29 -52 9 -122 22 -155 31 -33 8 -100 22 -150 29 -215 34 -528 172 -794
352 -40 27 -54 29 -72 6z"/>
</g>
</svg>
